# xmcd CD database file
#
# Track frame offsets:
#	150
#	14331
#	28279
#	49375
#	63573
#	77311
#	94069
#	110338
#	126140
#	141894
#	154918
#	179939
#	195884
#	211550
#	233073
#
# Disc length: 3337 seconds
#
# Revision: 0
# Processed by: cddbd v1.5.2PL0 Copyright (c) Steve Scherf et al.
# Submitted via: CDex 1.70beta2
#
DISCID=c90d070f
DTITLE=Split Whiskers - Done Broke Down
DYEAR=2007
DGENRE=Blues
TTITLE0=01 Can't Get No Grinding
TTITLE1=02 Gimme Some Lovin'
TTITLE2=03 Valse Des Niglos (Cops and Robbers)
TTITLE3=04 Shake Rattle And Roll
TTITLE4=05 Guilty
TTITLE5=06 Barefooting
TTITLE6=07 Shame Shame Shame
TTITLE7=08 Susie Q
TTITLE8=09 Railroad Bill
TTITLE9=10 High Heeled Sneakers
TTITLE10=11 How Blue Can You Get
TTITLE11=12 Killing Floor
TTITLE12=13 Rolling And Tumbling
TTITLE13=14 Let The Good Times Roll
TTITLE14=15 Fool For A Cigarette
EXTD=YEAR: 2007
EXTT0=
EXTT1=
EXTT2=
EXTT3=
EXTT4=
EXTT5=
EXTT6=
EXTT7=
EXTT8=
EXTT9=
EXTT10=
EXTT11=
EXTT12=
EXTT13=
EXTT14=
PLAYORDER=
